<svg width="244" height="293" viewBox="0 0 244 293" fill="none" xmlns="http://www.w3.org/2000/svg">
<rect x="202.012" y="119.793" width="10.1031" height="119.794" transform="rotate(179.804 202.012 119.793)" fill="#2169AE"/>
<rect x="177.719" y="189.877" width="10.1031" height="57.7319" transform="rotate(179.804 177.719 189.877)" fill="#2169AE"/>
<rect x="217.301" y="159.432" width="5.05154" height="106.804" transform="rotate(179.804 217.301 159.432)" fill="#2169AE"/>
<rect x="144.277" y="117.826" width="3.60824" height="117.629" transform="rotate(179.804 144.277 117.826)" fill="#2169AE"/>
<rect x="238.137" y="131.938" width="2.88659" height="45.4639" transform="rotate(179.804 238.137 131.938)" fill="#2169AE"/>
<rect x="237.879" y="267.609" width="5.05154" height="72.8865" transform="rotate(179.804 237.879 267.609)" fill="#2169AE"/>
<rect x="90.5664" y="239.968" width="2.16495" height="72.8865" transform="rotate(179.804 90.5664 239.968)" fill="#2169AE"/>
<rect x="110.848" y="51.5479" width="2.16495" height="50.5154" transform="rotate(179.804 110.848 51.5479)" fill="#2169AE"/>
<rect x="93.5352" y="51.6074" width="4.32989" height="50.5154" transform="rotate(179.804 93.5352 51.6074)" fill="#2169AE"/>
<rect x="89.8281" y="49.542" width="4.32989" height="50.5154" transform="rotate(31.1941 89.8281 49.542)" fill="#2169AE"/>
<rect x="111.148" y="138.867" width="2.16495" height="72.8865" transform="rotate(179.804 111.148 138.867)" fill="#2169AE"/>
<rect x="89.9141" y="168.527" width="2.16495" height="36.5134" transform="rotate(-144.054 89.9141 168.527)" fill="#2169AE"/>
<rect x="237.633" y="195.194" width="5.05154" height="43.9321" transform="rotate(151.241 237.633 195.194)" fill="#2169AE"/>
<rect x="237.984" y="86.9067" width="3.32684" height="40.9906" transform="rotate(148.418 237.984 86.9067)" fill="#2169AE"/>
<rect x="173.625" y="140.309" width="10.1031" height="34.9704" transform="rotate(-125.728 173.625 140.309)" fill="#2169AE"/>
<path d="M154.669 202.945C154.635 192.981 162.684 184.876 172.648 184.842C182.612 184.808 190.717 192.858 190.751 202.822C190.785 212.786 182.735 220.89 172.771 220.924C162.808 220.959 154.703 212.909 154.669 202.945ZM184.647 202.843C184.624 196.25 179.262 190.924 172.669 190.946C166.076 190.969 160.75 196.331 160.772 202.924C160.795 209.517 166.158 214.843 172.751 214.821C179.343 214.798 184.669 209.435 184.647 202.843Z" fill="#2169AE"/>
<rect width="8.65978" height="62.0618" transform="matrix(0.999994 -0.00341987 -0.00341987 -0.999994 14.5039 155.795)" fill="#2169AE"/>
<rect width="8.65978" height="60.6185" transform="matrix(0.999994 -0.00341987 -0.00341987 -0.999994 50.9883 61.8555)" fill="#2169AE"/>
<rect width="8.77525" height="54.3545" transform="matrix(0.70309 0.711101 0.711101 -0.70309 14.4609 93.5654)" fill="#2169AE"/>
<rect width="7.93814" height="75.7731" transform="matrix(0.999994 -0.00341987 -0.00341987 -0.999994 49.4727 250.934)" fill="#2169AE"/>
<rect width="8.77535" height="46.0558" transform="matrix(0.578375 -0.815771 -0.815771 -0.578375 51.8242 182.207)" fill="#2169AE"/>
<path d="M74.7893 268.167C74.7443 255.015 64.0458 244.39 50.8936 244.435C37.7413 244.48 27.1158 255.178 27.1607 268.33C27.2057 281.483 37.9042 292.108 51.0565 292.063C64.2087 292.018 74.8343 281.32 74.7893 268.167ZM35.2178 268.303C35.1881 259.6 42.2187 252.521 50.9211 252.492C59.6236 252.462 66.7024 259.492 66.7322 268.195C66.762 276.897 59.7313 283.976 51.0289 284.006C42.3265 284.036 35.2476 277.005 35.2178 268.303Z" fill="#2169AE"/>
<path d="M102.214 58.7934C102.201 54.8078 105.421 51.5659 109.406 51.5522C113.392 51.5386 116.634 54.7585 116.647 58.744C116.661 62.7295 113.441 65.9715 109.455 65.9851C105.47 65.9988 102.228 62.7789 102.214 58.7934ZM115.394 58.7483C115.382 55.4551 112.704 52.7945 109.41 52.8057C106.117 52.817 103.457 55.4958 103.468 58.7891C103.479 62.0823 106.158 64.7429 109.451 64.7316C112.744 64.7204 115.405 62.0415 115.394 58.7483Z" fill="#2169AE"/>
<circle cx="214.405" cy="50.1111" r="5.41237" transform="rotate(179.804 214.405 50.1111)" fill="#2169AE"/>
<path d="M227.796 274.139C227.781 269.755 231.323 266.188 235.707 266.173C240.091 266.158 243.657 269.7 243.672 274.084C243.687 278.468 240.145 282.035 235.761 282.05C231.377 282.065 227.811 278.523 227.796 274.139ZM241.5 274.092C241.489 270.908 238.899 268.335 235.714 268.346C232.53 268.357 229.957 270.947 229.968 274.131C229.979 277.316 232.569 279.888 235.754 279.877C238.938 279.866 241.511 277.276 241.5 274.092Z" fill="#2169AE"/>
<rect x="120.621" y="164.092" width="2.88659" height="62.7834" transform="rotate(179.804 120.621 164.092)" fill="#2169AE"/>
<rect x="132.379" y="227.558" width="2.88659" height="42.5773" transform="rotate(179.804 132.379 227.558)" fill="#2169AE"/>
<rect x="69.543" y="211.174" width="2.88659" height="43.2989" transform="rotate(179.804 69.543 211.174)" fill="#2169AE"/>
<rect x="38.2461" y="149.151" width="2.88659" height="36.1303" transform="rotate(-54.6659 38.2461 149.151)" fill="#2169AE"/>
<rect x="132.582" y="185.146" width="2.97056" height="25.8343" transform="rotate(151.241 132.582 185.146)" fill="#2169AE"/>
<path d="M126.622 231.547C126.613 228.956 128.706 226.849 131.297 226.84C133.887 226.831 135.995 228.924 136.003 231.515C136.012 234.105 133.919 236.213 131.329 236.222C128.738 236.23 126.631 234.138 126.622 231.547ZM134.72 231.519C134.713 229.638 133.183 228.118 131.301 228.124C129.42 228.13 127.899 229.661 127.906 231.543C127.912 233.424 129.443 234.944 131.324 234.938C133.206 234.931 134.726 233.401 134.72 231.519Z" fill="#2169AE"/>
<circle cx="235.739" cy="274.112" r="3.60824" transform="rotate(179.804 235.739 274.112)" fill="#2169AE"/>
<circle cx="236.705" cy="135.55" r="5.05154" transform="rotate(179.804 236.705 135.55)" fill="#2169AE"/>
<rect x="165.109" y="91.7749" width="2.88659" height="45.4639" transform="rotate(179.804 165.109 91.7749)" fill="#2169AE"/>
<rect x="164.961" y="46.7437" width="3.32684" height="40.9906" transform="rotate(148.418 164.961 46.7437)" fill="#2169AE"/>
<path d="M158.63 95.4054C158.62 92.6155 160.874 90.3462 163.664 90.3366C166.454 90.3271 168.723 92.581 168.733 95.3709C168.742 98.1607 166.488 100.43 163.698 100.44C160.909 100.449 158.639 98.1953 158.63 95.4054ZM167.15 95.3763C167.143 93.4605 165.585 91.9127 163.669 91.9193C161.754 91.9258 160.206 93.4842 160.212 95.4C160.219 97.3158 161.777 98.8635 163.693 98.857C165.609 98.8504 167.157 97.292 167.15 95.3763Z" fill="#2169AE"/>
<rect width="2.88659" height="45.4639" transform="matrix(0.999994 -0.00341987 -0.00341987 -0.999994 81.9219 141.854)" fill="#2169AE"/>
<rect width="3.32684" height="40.9906" transform="matrix(0.855454 0.517878 0.517878 -0.855454 81.7656 96.8218)" fill="#2169AE"/>
<circle r="5.05154" transform="matrix(0.999994 -0.00341987 -0.00341987 -0.999994 83.3741 145.457)" fill="#2169AE"/>
<circle cx="142.119" cy="119.998" r="5.05154" transform="rotate(179.804 142.119 119.998)" fill="#2169AE"/>
<path d="M59.0477 96.4674C59.0381 93.6775 61.292 91.4082 64.0819 91.3986C66.8718 91.3891 69.1412 93.643 69.1507 96.4329C69.1602 99.2227 66.9063 101.492 64.1165 101.502C61.3266 101.511 59.0572 99.2573 59.0477 96.4674ZM66.94 96.4404C66.9347 94.8715 65.6584 93.6039 64.0895 93.6093C62.5205 93.6147 61.253 94.8909 61.2583 96.4599C61.2637 98.0288 62.5399 99.2964 64.1089 99.291C65.6779 99.2856 66.9454 98.0094 66.94 96.4404Z" fill="#2169AE"/>
<circle cx="89.1304" cy="241.417" r="5.05154" transform="rotate(179.804 89.1304 241.417)" fill="#2169AE"/>
<circle cx="67.7454" cy="212.984" r="3.24742" transform="rotate(179.804 67.7454 212.984)" fill="#2169AE"/>
<rect width="2.88659" height="43.2989" transform="matrix(0.999994 -0.00341987 -0.00341987 -0.999994 1.44922 134.912)" fill="#2169AE"/>
<rect width="2.88659" height="36.1303" transform="matrix(0.703096 0.711095 0.711095 -0.703096 0.921875 91.7202)" fill="#2169AE"/>
<circle r="3.24742" transform="matrix(0.999994 -0.00341987 -0.00341987 -0.999994 3.25973 136.71)" fill="#2169AE"/>
<circle r="3.24742" transform="matrix(0.999994 -0.00341987 -0.00341987 -0.999994 28.9941 66.6214)" fill="#2169AE"/>
</svg>
